<svg width="398" height="100" viewBox="0 0 398 100" fill="none" xmlns="http://www.w3.org/2000/svg">
<path d="M112.477 31H122.906L133.922 57.875H134.391L145.406 31H155.836V71H147.633V44.9648H147.301L136.949 70.8047H131.363L121.012 44.8672H120.68V71H112.477V31ZM176.319 71.5859C173.233 71.5859 170.577 70.9609 168.351 69.7109C166.137 68.4479 164.431 66.6641 163.233 64.3594C162.035 62.0417 161.437 59.3008 161.437 56.1367C161.437 53.0508 162.035 50.3424 163.233 48.0117C164.431 45.681 166.118 43.8646 168.292 42.5625C170.479 41.2604 173.045 40.6094 175.987 40.6094C177.966 40.6094 179.809 40.9284 181.515 41.5664C183.233 42.1914 184.731 43.1354 186.007 44.3984C187.296 45.6615 188.299 47.25 189.015 49.1641C189.731 51.0651 190.089 53.2917 190.089 55.8437V58.1289H164.757V52.9727H182.257C182.257 51.7747 181.996 50.7135 181.476 49.7891C180.955 48.8646 180.232 48.1419 179.308 47.6211C178.396 47.0872 177.335 46.8203 176.124 46.8203C174.861 46.8203 173.741 47.1133 172.765 47.6992C171.801 48.2721 171.046 49.0469 170.499 50.0234C169.952 50.987 169.672 52.0612 169.659 53.2461V58.1484C169.659 59.6328 169.933 60.9154 170.479 61.9961C171.039 63.0768 171.827 63.9102 172.843 64.4961C173.858 65.082 175.063 65.375 176.456 65.375C177.381 65.375 178.227 65.2448 178.995 64.9844C179.763 64.724 180.421 64.3333 180.968 63.8125C181.515 63.2917 181.931 62.6536 182.218 61.8984L189.913 62.4062C189.522 64.2552 188.722 65.8698 187.511 67.25C186.313 68.6172 184.763 69.6849 182.862 70.4531C180.974 71.2083 178.793 71.5859 176.319 71.5859ZM211.476 41V47.25H193.409V41H211.476ZM197.511 33.8125H205.831V61.7812C205.831 62.5495 205.948 63.1484 206.183 63.5781C206.417 63.9948 206.743 64.2878 207.159 64.457C207.589 64.6263 208.084 64.7109 208.644 64.7109C209.034 64.7109 209.425 64.6784 209.815 64.6133C210.206 64.5352 210.506 64.4766 210.714 64.4375L212.022 70.6289C211.606 70.7591 211.02 70.9089 210.265 71.0781C209.509 71.2604 208.591 71.3711 207.511 71.4102C205.506 71.4883 203.748 71.2214 202.237 70.6094C200.74 69.9974 199.575 69.0469 198.741 67.7578C197.908 66.4687 197.498 64.8411 197.511 62.875V33.8125ZM216.896 71V41H224.962V46.2344H225.274C225.821 44.3724 226.739 42.9661 228.028 42.0156C229.317 41.0521 230.802 40.5703 232.481 40.5703C232.898 40.5703 233.347 40.5964 233.829 40.6484C234.311 40.7005 234.734 40.7721 235.099 40.8633V48.2461C234.708 48.1289 234.168 48.0247 233.478 47.9336C232.787 47.8424 232.156 47.7969 231.583 47.7969C230.359 47.7969 229.265 48.0638 228.302 48.5977C227.351 49.1185 226.596 49.8477 226.036 50.7852C225.489 51.7227 225.216 52.8034 225.216 54.0273V71H216.896ZM251.559 71.5859C248.525 71.5859 245.901 70.9414 243.688 69.6523C241.487 68.3503 239.788 66.5404 238.59 64.2227C237.392 61.8919 236.793 59.1901 236.793 56.1172C236.793 53.0182 237.392 50.3099 238.59 47.9922C239.788 45.6615 241.487 43.8516 243.688 42.5625C245.901 41.2604 248.525 40.6094 251.559 40.6094C254.592 40.6094 257.21 41.2604 259.41 42.5625C261.624 43.8516 263.329 45.6615 264.527 47.9922C265.725 50.3099 266.324 53.0182 266.324 56.1172C266.324 59.1901 265.725 61.8919 264.527 64.2227C263.329 66.5404 261.624 68.3503 259.41 69.6523C257.21 70.9414 254.592 71.5859 251.559 71.5859ZM251.598 65.1406C252.978 65.1406 254.13 64.75 255.055 63.9688C255.979 63.1745 256.676 62.0937 257.145 60.7266C257.626 59.3594 257.867 57.8034 257.867 56.0586C257.867 54.3138 257.626 52.7578 257.145 51.3906C256.676 50.0234 255.979 48.9427 255.055 48.1484C254.13 47.3542 252.978 46.957 251.598 46.957C250.204 46.957 249.033 47.3542 248.082 48.1484C247.145 48.9427 246.435 50.0234 245.953 51.3906C245.484 52.7578 245.25 54.3138 245.25 56.0586C245.25 57.8034 245.484 59.3594 245.953 60.7266C246.435 62.0937 247.145 63.1745 248.082 63.9688C249.033 64.75 250.204 65.1406 251.598 65.1406Z" fill="white"/>
<path d="M271.734 82.25V41H279.938V46.0391H280.309C280.673 45.2318 281.201 44.4115 281.891 43.5781C282.594 42.7318 283.505 42.0286 284.625 41.4688C285.758 40.8958 287.164 40.6094 288.844 40.6094C291.031 40.6094 293.049 41.1823 294.898 42.3281C296.747 43.4609 298.225 45.1732 299.332 47.4648C300.439 49.7435 300.992 52.6016 300.992 56.0391C300.992 59.3854 300.452 62.2109 299.371 64.5156C298.303 66.8073 296.845 68.5456 294.996 69.7305C293.16 70.9023 291.103 71.4883 288.824 71.4883C287.21 71.4883 285.836 71.2214 284.703 70.6875C283.583 70.1536 282.665 69.4831 281.949 68.6758C281.233 67.8555 280.686 67.0286 280.309 66.1953H280.055V82.25H271.734ZM279.879 56C279.879 57.7839 280.126 59.3398 280.621 60.668C281.116 61.9961 281.832 63.0312 282.77 63.7734C283.707 64.5026 284.846 64.8672 286.187 64.8672C287.542 64.8672 288.688 64.4961 289.625 63.7539C290.563 62.9987 291.272 61.957 291.754 60.6289C292.249 59.2878 292.496 57.7448 292.496 56C292.496 54.2682 292.255 52.7448 291.773 51.4297C291.292 50.1146 290.582 49.0859 289.645 48.3437C288.707 47.6016 287.555 47.2305 286.187 47.2305C284.833 47.2305 283.688 47.5885 282.75 48.3047C281.826 49.0208 281.116 50.0365 280.621 51.3516C280.126 52.6667 279.879 54.2161 279.879 56ZM320.094 71.5859C317.06 71.5859 314.436 70.9414 312.223 69.6523C310.022 68.3503 308.323 66.5404 307.125 64.2227C305.927 61.8919 305.328 59.1901 305.328 56.1172C305.328 53.0182 305.927 50.3099 307.125 47.9922C308.323 45.6615 310.022 43.8516 312.223 42.5625C314.436 41.2604 317.06 40.6094 320.094 40.6094C323.128 40.6094 325.745 41.2604 327.945 42.5625C330.159 43.8516 331.865 45.6615 333.062 47.9922C334.26 50.3099 334.859 53.0182 334.859 56.1172C334.859 59.1901 334.26 61.8919 333.062 64.2227C331.865 66.5404 330.159 68.3503 327.945 69.6523C325.745 70.9414 323.128 71.5859 320.094 71.5859ZM320.133 65.1406C321.513 65.1406 322.665 64.75 323.59 63.9688C324.514 63.1745 325.211 62.0937 325.68 60.7266C326.161 59.3594 326.402 57.8034 326.402 56.0586C326.402 54.3138 326.161 52.7578 325.68 51.3906C325.211 50.0234 324.514 48.9427 323.59 48.1484C322.665 47.3542 321.513 46.957 320.133 46.957C318.74 46.957 317.568 47.3542 316.617 48.1484C315.68 48.9427 314.97 50.0234 314.488 51.3906C314.02 52.7578 313.785 54.3138 313.785 56.0586C313.785 57.8034 314.02 59.3594 314.488 60.7266C314.97 62.0937 315.68 63.1745 316.617 63.9688C317.568 64.75 318.74 65.1406 320.133 65.1406ZM348.59 31V71H340.27V31H348.59ZM355.255 71V41H363.575V71H355.255ZM359.435 37.1328C358.198 37.1328 357.136 36.7227 356.251 35.9023C355.379 35.069 354.942 34.0729 354.942 32.9141C354.942 31.7682 355.379 30.7852 356.251 29.9648C357.136 29.1315 358.198 28.7148 359.435 28.7148C360.672 28.7148 361.726 29.1315 362.599 29.9648C363.484 30.7852 363.927 31.7682 363.927 32.9141C363.927 34.0729 363.484 35.069 362.599 35.9023C361.726 36.7227 360.672 37.1328 359.435 37.1328ZM395.201 49.5547L387.584 50.0234C387.454 49.3724 387.174 48.7865 386.744 48.2656C386.314 47.7318 385.748 47.3086 385.045 46.9961C384.355 46.6706 383.528 46.5078 382.564 46.5078C381.275 46.5078 380.188 46.7812 379.303 47.3281C378.417 47.862 377.975 48.5781 377.975 49.4766C377.975 50.1927 378.261 50.7982 378.834 51.293C379.407 51.7878 380.39 52.1849 381.783 52.4844L387.213 53.5781C390.13 54.1771 392.304 55.1406 393.736 56.4687C395.169 57.7969 395.885 59.5417 395.885 61.7031C395.885 63.6693 395.305 65.3945 394.146 66.8789C393.001 68.3633 391.425 69.5221 389.42 70.3555C387.428 71.1758 385.13 71.5859 382.525 71.5859C378.554 71.5859 375.39 70.7591 373.033 69.1055C370.689 67.4388 369.316 65.1732 368.912 62.3086L377.096 61.8789C377.343 63.0898 377.942 64.0143 378.893 64.6523C379.843 65.2773 381.061 65.5898 382.545 65.5898C384.003 65.5898 385.175 65.3099 386.061 64.75C386.959 64.1771 387.415 63.4414 387.428 62.543C387.415 61.7878 387.096 61.1693 386.471 60.6875C385.846 60.1927 384.882 59.8151 383.58 59.5547L378.385 58.5195C375.455 57.9336 373.274 56.918 371.842 55.4727C370.423 54.0273 369.713 52.1849 369.713 49.9453C369.713 48.0182 370.234 46.3581 371.275 44.9648C372.33 43.5716 373.808 42.4974 375.709 41.7422C377.623 40.987 379.863 40.6094 382.428 40.6094C386.217 40.6094 389.199 41.4102 391.373 43.0117C393.561 44.6133 394.837 46.7943 395.201 49.5547Z" fill="#5CE1E6"/>
<path d="M100 50C100 59.5016 97.2927 68.8064 92.1951 76.8248C87.0976 84.8432 79.8208 91.2432 71.2171 95.2751C62.6134 99.307 53.039 100.804 43.6152 99.5907C34.1915 98.3774 25.3085 94.504 18.0067 88.4243C10.7048 82.3445 5.2865 74.3101 2.38623 65.262C-0.514029 56.2139 -0.776138 46.5267 1.63061 37.335C4.03735 28.1433 9.0133 19.8277 15.9757 13.362C22.938 6.89628 31.5986 2.54826 40.943 0.827139L45.2903 24.4301C40.4313 25.3251 35.9278 27.5861 32.3073 30.9482C28.6869 34.3104 26.0994 38.6345 24.8479 43.4142C23.5964 48.1939 23.7327 53.2312 25.2408 57.9362C26.749 62.6413 29.5665 66.8192 33.3635 69.9806C37.1604 73.1421 41.7796 75.1562 46.6799 75.7872C51.5803 76.4181 56.559 75.6396 61.0329 73.543C65.5068 71.4464 69.2907 68.1185 71.9415 63.9489C74.5922 59.7793 76 54.9408 76 50H100Z" fill="url(#paint0_linear_1_7)"/>
<circle cx="50" cy="50" r="10" fill="url(#paint1_linear_1_7)"/>
<defs>
<linearGradient id="paint0_linear_1_7" x1="-17" y1="19" x2="77" y2="130" gradientUnits="userSpaceOnUse">
<stop offset="0.25" stop-color="#5CE1E6"/>
<stop offset="0.660113" stop-color="white"/>
</linearGradient>
<linearGradient id="paint1_linear_1_7" x1="50" y1="40" x2="50" y2="60" gradientUnits="userSpaceOnUse">
<stop stop-color="#5CE1E6"/>
<stop offset="0.653867" stop-color="white"/>
</linearGradient>
</defs>
</svg>
